# xmcd CD database file
#
# Track frame offsets:
#	150
#	29850
#	71150
#	106890
#	153817
#	176967
#	196767
#	228570
#	256820
#	285332
#
# Disc length: 3951 seconds
#
# Revision: 0
# Processed by: cddbd v1.5.2PL0 Copyright (c) Steve Scherf et al.
# Submitted via: CDex 1.70beta2
#
DISCID=880f6d0a
DTITLE=Manhattan Jazz Story - 3 Softly As In A Morning Sunrise
DYEAR=1900
DGENRE=Jazz
TTITLE0=Softly As In A Morning Sunrise - Sonny Clark
TTITLE1=Moments Notice - John Coltrane
TTITLE2=Maiden Voyage - Herbie Hancock
TTITLE3=The Sidewinder - Lee Morgan
TTITLE4=Mercy Mercy Mercy - Cannonball Adderley
TTITLE5=Body And Soul - Art Pepper
TTITLE6=Senor Blues - Horace Silver
TTITLE7=Just Friends - John Coltrane
TTITLE8=Like Someone In Love - Dexter Gordon
TTITLE9=Stella By Starlight - Kenny Drew
EXTD=
EXTT0=
EXTT1=
EXTT2=
EXTT3=
EXTT4=
EXTT5=
EXTT6=
EXTT7=
EXTT8=
EXTT9=
PLAYORDER=
